<svg width="164" height="62" viewBox="0 0 164 62" fill="none" xmlns="http://www.w3.org/2000/svg">
<path d="M60.5337 8.66C59.9203 8.66 59.4937 8.82667 59.2537 9.16C59.0137 9.49333 58.8937 10.04 58.8937 10.8V11.3C58.8937 11.3533 58.9203 11.38 58.9737 11.38H60.8537C60.987 11.38 61.0537 11.4467 61.0537 11.58V12.36C61.0537 12.4933 60.987 12.56 60.8537 12.56H58.9737C58.9203 12.56 58.8937 12.5867 58.8937 12.64V21.3C58.8937 21.4333 58.827 21.5 58.6937 21.5H57.6737C57.5403 21.5 57.4737 21.4333 57.4737 21.3V12.64C57.4737 12.5867 57.447 12.56 57.3937 12.56H56.3337C56.2003 12.56 56.1337 12.4933 56.1337 12.36V11.58C56.1337 11.4467 56.2003 11.38 56.3337 11.38H57.3937C57.447 11.38 57.4737 11.3533 57.4737 11.3V10.74C57.4737 9.55333 57.6937 8.70667 58.1337 8.2C58.587 7.69333 59.367 7.44 60.4737 7.44H60.8937C61.027 7.44 61.0937 7.50667 61.0937 7.64V8.46C61.0937 8.59333 61.027 8.66 60.8937 8.66H60.5337ZM66.3255 11.22C67.3922 11.22 68.2255 11.5267 68.8255 12.14C69.4389 12.7533 69.7455 13.5667 69.7455 14.58V21.3C69.7455 21.4333 69.6789 21.5 69.5455 21.5H68.5255C68.3922 21.5 68.3255 21.4333 68.3255 21.3V20.58C68.3255 20.5533 68.3122 20.5333 68.2855 20.52C68.2722 20.5067 68.2522 20.5133 68.2255 20.54C67.9322 20.9133 67.5589 21.1933 67.1055 21.38C66.6522 21.5667 66.1455 21.66 65.5855 21.66C64.7455 21.66 64.0255 21.4333 63.4255 20.98C62.8389 20.5267 62.5455 19.7867 62.5455 18.76C62.5455 17.6933 62.8855 16.8867 63.5655 16.34C64.2589 15.78 65.1989 15.5 66.3855 15.5H68.2455C68.2989 15.5 68.3255 15.4733 68.3255 15.42V14.66C68.3255 13.98 68.1522 13.4467 67.8055 13.06C67.4722 12.66 66.9722 12.46 66.3055 12.46C65.7855 12.46 65.3522 12.5933 65.0055 12.86C64.6589 13.1133 64.4522 13.4533 64.3855 13.88C64.3722 14 64.2989 14.06 64.1655 14.06L63.0655 14C62.9989 14 62.9455 13.98 62.9055 13.94C62.8789 13.9 62.8722 13.8533 62.8855 13.8C62.9789 13.0267 63.3389 12.4067 63.9655 11.94C64.6055 11.46 65.3922 11.22 66.3255 11.22ZM65.8655 20.42C66.5322 20.42 67.1055 20.24 67.5855 19.88C68.0789 19.5067 68.3255 18.9933 68.3255 18.34V16.72C68.3255 16.6667 68.2989 16.64 68.2455 16.64H66.4855C65.7255 16.64 65.1189 16.82 64.6655 17.18C64.2122 17.5267 63.9855 18.0267 63.9855 18.68C63.9855 19.2667 64.1589 19.7067 64.5055 20C64.8522 20.28 65.3055 20.42 65.8655 20.42ZM81.5038 11.24C82.3972 11.24 83.0972 11.54 83.6038 12.14C84.1238 12.7267 84.3838 13.54 84.3838 14.58V21.3C84.3838 21.4333 84.3172 21.5 84.1838 21.5H83.1838C83.0505 21.5 82.9838 21.4333 82.9838 21.3V14.78C82.9838 14.0733 82.8038 13.5133 82.4438 13.1C82.0972 12.6867 81.6372 12.48 81.0638 12.48C80.4638 12.48 79.9772 12.6867 79.6038 13.1C79.2438 13.5 79.0638 14.0467 79.0638 14.74V21.3C79.0638 21.4333 78.9972 21.5 78.8638 21.5H77.8438C77.7105 21.5 77.6438 21.4333 77.6438 21.3V14.78C77.6438 14.0733 77.4638 13.5133 77.1038 13.1C76.7572 12.6867 76.2972 12.48 75.7238 12.48C75.1238 12.48 74.6438 12.6867 74.2838 13.1C73.9238 13.5 73.7438 14.0467 73.7438 14.74V21.3C73.7438 21.4333 73.6772 21.5 73.5438 21.5H72.5238C72.3905 21.5 72.3238 21.4333 72.3238 21.3V11.58C72.3238 11.4467 72.3905 11.38 72.5238 11.38H73.5438C73.6772 11.38 73.7438 11.4467 73.7438 11.58V12.28C73.7438 12.3067 73.7505 12.3267 73.7638 12.34C73.7905 12.34 73.8172 12.3267 73.8438 12.3C74.1105 11.94 74.4505 11.6733 74.8638 11.5C75.2772 11.3267 75.7172 11.24 76.1838 11.24C76.7705 11.24 77.2838 11.3733 77.7238 11.64C78.1638 11.9067 78.4972 12.28 78.7238 12.76C78.7505 12.8267 78.7838 12.8267 78.8238 12.76C79.0905 12.24 79.4572 11.86 79.9238 11.62C80.4038 11.3667 80.9305 11.24 81.5038 11.24ZM87.0699 21.5C86.9366 21.5 86.8699 21.4333 86.8699 21.3V11.58C86.8699 11.4467 86.9366 11.38 87.0699 11.38H88.0899C88.2233 11.38 88.2899 11.4467 88.2899 11.58V21.3C88.2899 21.4333 88.2233 21.5 88.0899 21.5H87.0699ZM86.8899 10.06C86.8099 10.06 86.7566 10.04 86.7299 10C86.7033 9.94667 86.7099 9.88667 86.7499 9.82L87.9699 7.64C88.0366 7.54667 88.1166 7.5 88.2099 7.5H89.0699C89.1499 7.5 89.1966 7.52667 89.2099 7.58C89.2366 7.62 89.2299 7.67333 89.1899 7.74L87.8099 9.92C87.7433 10.0133 87.6633 10.06 87.5699 10.06H86.8899ZM91.0185 21.5C90.8852 21.5 90.8185 21.4333 90.8185 21.3V7.7C90.8185 7.56667 90.8852 7.5 91.0185 7.5H92.0385C92.1718 7.5 92.2385 7.56667 92.2385 7.7V21.3C92.2385 21.4333 92.1718 21.5 92.0385 21.5H91.0185ZM95.9196 9.54C95.5863 9.54 95.3129 9.43333 95.0996 9.22C94.8996 9.00667 94.7996 8.74 94.7996 8.42C94.7996 8.08667 94.8996 7.82 95.0996 7.62C95.3129 7.40667 95.5863 7.3 95.9196 7.3C96.2396 7.3 96.5063 7.40667 96.7196 7.62C96.9329 7.82 97.0396 8.08667 97.0396 8.42C97.0396 8.74 96.9329 9.00667 96.7196 9.22C96.5063 9.43333 96.2396 9.54 95.9196 9.54ZM95.3796 21.5C95.2463 21.5 95.1796 21.4333 95.1796 21.3V11.58C95.1796 11.4467 95.2463 11.38 95.3796 11.38H96.3996C96.5329 11.38 96.5996 11.4467 96.5996 11.58V21.3C96.5996 21.4333 96.5329 21.5 96.3996 21.5H95.3796ZM102.888 11.22C103.955 11.22 104.788 11.5267 105.388 12.14C106.001 12.7533 106.308 13.5667 106.308 14.58V21.3C106.308 21.4333 106.241 21.5 106.108 21.5H105.088C104.955 21.5 104.888 21.4333 104.888 21.3V20.58C104.888 20.5533 104.875 20.5333 104.848 20.52C104.835 20.5067 104.815 20.5133 104.788 20.54C104.495 20.9133 104.121 21.1933 103.668 21.38C103.215 21.5667 102.708 21.66 102.148 21.66C101.308 21.66 100.588 21.4333 99.988 20.98C99.4014 20.5267 99.108 19.7867 99.108 18.76C99.108 17.6933 99.448 16.8867 100.128 16.34C100.821 15.78 101.761 15.5 102.948 15.5H104.808C104.861 15.5 104.888 15.4733 104.888 15.42V14.66C104.888 13.98 104.715 13.4467 104.368 13.06C104.035 12.66 103.535 12.46 102.868 12.46C102.348 12.46 101.915 12.5933 101.568 12.86C101.221 13.1133 101.015 13.4533 100.948 13.88C100.935 14 100.861 14.06 100.728 14.06L99.628 14C99.5614 14 99.508 13.98 99.468 13.94C99.4414 13.9 99.4347 13.8533 99.448 13.8C99.5414 13.0267 99.9014 12.4067 100.528 11.94C101.168 11.46 101.955 11.22 102.888 11.22ZM102.428 20.42C103.095 20.42 103.668 20.24 104.148 19.88C104.641 19.5067 104.888 18.9933 104.888 18.34V16.72C104.888 16.6667 104.861 16.64 104.808 16.64H103.048C102.288 16.64 101.681 16.82 101.228 17.18C100.775 17.5267 100.548 18.0267 100.548 18.68C100.548 19.2667 100.721 19.7067 101.068 20C101.415 20.28 101.868 20.42 102.428 20.42Z" fill="#7EAA92"/>
<path d="M5.07812 30.2812C5.07812 30.2812 8.40625 30.2812 15.0625 30.2812C15.2708 30.2812 15.4688 30.3125 15.6562 30.375C16.2292 30.5625 16.5156 30.9531 16.5156 31.5469C16.5156 31.7135 16.4792 31.8698 16.4062 32.0156C16.1979 32.4635 15.7812 32.7344 15.1562 32.8281H6.1875L5.09375 41.3906H11.5938C11.8438 41.3906 12.0729 41.4375 12.2812 41.5312C12.7812 41.7604 13.0312 42.1458 13.0312 42.6875C13.0312 42.8333 13 42.9792 12.9375 43.125C12.75 43.5729 12.3333 43.849 11.6875 43.9531H4.78125L3.54688 53.2188C3.54688 53.2292 3.54167 53.25 3.53125 53.2812C3.41667 54.0938 3 54.5 2.28125 54.5C2.03125 54.5 1.80208 54.4375 1.59375 54.3125C1.1875 54.0625 0.984375 53.6823 0.984375 53.1719C0.984375 52.3594 1.70312 46.8125 3.14062 36.5312C3.53646 33.7083 3.77083 32.0208 3.84375 31.4688C3.85417 31.4062 3.86458 31.3438 3.875 31.2812C4.02083 30.6146 4.42188 30.2812 5.07812 30.2812ZM17.5781 49.4844C17.5781 49.1302 17.599 48.7552 17.6406 48.3594C17.8594 46.5781 18.4219 44.9948 19.3281 43.6094C20.4323 41.9115 21.7604 41.0625 23.3125 41.0625C23.9896 41.0625 24.5781 41.1875 25.0781 41.4375C25.276 41.1979 25.5521 41.0729 25.9062 41.0625C26.0729 41.0625 26.2292 41.0833 26.375 41.125C26.7708 41.2708 26.9688 41.7083 26.9688 42.4375C26.9688 42.7396 26.9167 43.3854 26.8125 44.375C26.5 47.3542 26.3438 49.1979 26.3438 49.9062C26.3438 50.3854 26.4375 50.8333 26.625 51.25C26.9167 51.875 27.3073 52.1875 27.7969 52.1875C27.9948 52.1875 28.1927 52.151 28.3906 52.0781C29.8594 51.5677 31.1042 49.3177 32.125 45.3281C31.7083 45.224 31.3229 45.0521 30.9688 44.8125C30.0208 44.1771 29.5469 43.2552 29.5469 42.0469C29.5469 41.599 29.6615 41.1771 29.8906 40.7812C30.349 39.9896 31.0781 39.5938 32.0781 39.5938C32.5885 39.5938 33.0729 39.7292 33.5312 40C34.2812 40.4688 34.6562 41.1146 34.6562 41.9375C34.6562 42.2708 34.6302 42.6979 34.5781 43.2188C34.8281 43.0833 35.1927 42.8542 35.6719 42.5312C36.2344 42.1354 36.6562 41.9375 36.9375 41.9375C37.2604 41.9375 37.5521 42.0208 37.8125 42.1875C38.1146 42.375 38.2656 42.5677 38.2656 42.7656C38.2656 42.8281 38.2292 42.9948 38.1562 43.2656C37.6146 45.0677 37.3438 46.6562 37.3438 48.0312C37.3438 49.0521 37.4479 49.8854 37.6562 50.5312C37.9479 51.3854 38.3802 51.8125 38.9531 51.8125C39.276 51.7917 39.8021 51.5625 40.5312 51.125C41.1667 50.6979 41.6406 50.4844 41.9531 50.4844C42.1094 50.4844 42.2656 50.5417 42.4219 50.6562C42.6927 50.8542 42.8281 51.0885 42.8281 51.3594C42.7969 51.9427 42.3906 52.5365 41.6094 53.1406C40.6823 53.8177 39.6927 54.1562 38.6406 54.1562C38.5156 54.1562 38.3854 54.151 38.25 54.1406C37.0938 53.9948 36.2448 53.3281 35.7031 52.1406C35.3073 51.4427 35.1094 50.2344 35.1094 48.5156C35.1094 48.1823 35.1198 47.8281 35.1406 47.4531C35.2031 46.3177 35.2969 45.5052 35.4219 45.0156C35.099 45.1719 34.7083 45.2969 34.25 45.3906C34.1875 45.7135 34.1198 46.0312 34.0469 46.3438C32.7656 51.7604 30.5573 54.4688 27.4219 54.4688C26.1094 54.4583 25.151 53.7969 24.5469 52.4844C24.4115 52.6406 24.2552 52.8021 24.0781 52.9688C23.026 53.9688 21.9635 54.4688 20.8906 54.4688C20.224 54.4688 19.6458 54.2969 19.1562 53.9531C18.1042 53.1823 17.5781 51.6927 17.5781 49.4844ZM24.375 44.8594C24.3854 44.7969 24.4479 44.276 24.5625 43.2969C24.3021 43.1719 24.0625 43.1094 23.8438 43.1094C23.6458 43.1094 23.4479 43.1354 23.25 43.1875C22.2917 43.4792 21.4792 44.3854 20.8125 45.9062C20.2083 47.2708 19.9062 48.6302 19.9062 49.9844C19.9062 50.1823 19.9167 50.3698 19.9375 50.5469C20.0312 51.5573 20.349 52.0625 20.8906 52.0625C21.1823 52.0625 21.5365 51.9167 21.9531 51.625C22.4427 51.2812 22.8333 50.9219 23.125 50.5469C23.2083 50.4219 23.3229 50.0938 23.4688 49.5625C23.875 48.0417 24.1771 46.474 24.375 44.8594ZM31.4375 42.1562C31.4479 42.7396 31.8125 43.1562 32.5312 43.4062C32.6354 42.7604 32.6875 42.3438 32.6875 42.1562C32.6875 42.0938 32.6771 42.026 32.6562 41.9531C32.5833 41.6615 32.3958 41.5156 32.0938 41.5156C32.0312 41.5156 31.9635 41.526 31.8906 41.5469C31.5885 41.6406 31.4375 41.8438 31.4375 42.1562ZM44.9219 42.3906C44.9219 42.6927 44.8698 43.3438 44.7656 44.3438C44.4427 47.3021 44.2812 49.1406 44.2812 49.8594C44.2812 50.3385 44.3802 50.7865 44.5781 51.2031C44.8698 51.8281 45.2604 52.1406 45.75 52.1406C45.8542 52.1406 45.9635 52.1302 46.0781 52.1094C46.3802 52.0365 46.8177 51.7917 47.3906 51.375C47.9531 50.9583 48.4062 50.75 48.75 50.75C48.8958 50.75 49.0417 50.8021 49.1875 50.9062C49.4792 51.1146 49.625 51.3906 49.625 51.7344C49.5833 52.2656 49.1719 52.8281 48.3906 53.4219C47.4323 54.0885 46.4271 54.4219 45.375 54.4219C44.4896 54.4219 43.7552 54.1146 43.1719 53.5C42.2969 52.5625 41.8594 51.0729 41.8594 49.0312C41.8594 48.3333 42 46.9688 42.2812 44.9375C42.4062 43.9896 42.4948 43.2917 42.5469 42.8438C42.5573 42.75 42.5677 42.6562 42.5781 42.5625C42.7448 41.5208 43.1719 41 43.8594 41C43.974 41 44.0885 41.0104 44.2031 41.0312C44.6823 41.1458 44.9219 41.599 44.9219 42.3906ZM43.1406 38.2969C43.1406 38.1094 43.1823 37.9323 43.2656 37.7656C43.474 37.3594 43.8125 37.1562 44.2812 37.1562C44.4688 37.1562 44.6458 37.1979 44.8125 37.2812C45.2188 37.4896 45.4219 37.8281 45.4219 38.2969C45.4219 38.4844 45.3802 38.6615 45.2969 38.8281C45.0885 39.2344 44.75 39.4375 44.2812 39.4375C44.0938 39.4375 43.9167 39.3958 43.75 39.3125C43.3438 39.1042 43.1406 38.7656 43.1406 38.2969ZM61.8438 47.0938C61.8438 47.0938 62.2604 45.4375 63.0938 42.125C63.3125 41.5833 63.6979 41.3073 64.25 41.2969C64.4583 41.3073 64.6667 41.3281 64.875 41.3594C66.625 41.6406 68.0469 42.5312 69.1406 44.0312C70.1615 45.4375 70.6719 47.0417 70.6719 48.8438C70.651 49.9583 70.3906 51.0938 69.8906 52.25C69.3177 53.5104 68.6458 54.1406 67.875 54.1406C67.6667 54.1406 67.4688 54.0521 67.2812 53.875C67.0104 53.6146 66.875 53.3281 66.875 53.0156C66.875 52.8802 66.901 52.7396 66.9531 52.5938C66.9531 52.5938 67.0156 52.4792 67.1406 52.25C67.8906 51.0521 68.2708 49.8385 68.2812 48.6094C68.2812 48.4635 68.276 48.3177 68.2656 48.1719C68.1615 46.8281 67.6354 45.6875 66.6875 44.75C66.0833 44.125 65.5312 43.8073 65.0312 43.7969C64.9271 44.1927 64.7552 44.9115 64.5156 45.9531C63.9844 48.2865 63.474 49.9844 62.9844 51.0469C61.9115 53.3281 60.3542 54.4688 58.3125 54.4688C57 54.4583 56.0417 53.7969 55.4375 52.4844C55.3021 52.6406 55.1458 52.8021 54.9688 52.9688C53.9167 53.9688 52.8542 54.4688 51.7812 54.4688C51.1146 54.4688 50.5417 54.2969 50.0625 53.9531C48.9896 53.1927 48.4531 51.7031 48.4531 49.4844C48.4531 49.1302 48.474 48.7552 48.5156 48.3594C48.7344 46.5781 49.2969 44.9948 50.2031 43.6094C51.3177 41.9115 52.651 41.0625 54.2031 41.0625C54.8802 41.0625 55.4688 41.1927 55.9688 41.4531C56.1771 41.2031 56.4531 41.0729 56.7969 41.0625C56.9323 41.0625 57.0625 41.0781 57.1875 41.1094C57.6354 41.2344 57.8594 41.6771 57.8594 42.4375C57.8594 42.7396 57.8073 43.3906 57.7031 44.3906C57.3802 47.349 57.2188 49.1875 57.2188 49.9062C57.2188 50.3021 57.2865 50.6823 57.4219 51.0469C57.6823 51.7865 58.0938 52.1562 58.6562 52.1562C59.3333 52.1458 59.9323 51.7396 60.4531 50.9375C60.8906 50.2292 61.3542 48.9479 61.8438 47.0938ZM54.0156 50.5469C54.0885 50.4323 54.1771 50.2083 54.2812 49.875C54.7083 48.4583 55.099 46.2656 55.4531 43.2969C55.1927 43.1719 54.9531 43.1094 54.7344 43.1094C54.5365 43.1094 54.3385 43.1354 54.1406 43.1875C53.1823 43.4792 52.3698 44.3854 51.7031 45.9062C51.099 47.2708 50.7969 48.6302 50.7969 49.9844C50.7969 50.1823 50.8073 50.3698 50.8281 50.5469C50.9219 51.5573 51.2396 52.0625 51.7812 52.0625C52.0729 52.0625 52.4271 51.9167 52.8438 51.625C53.3333 51.2812 53.724 50.9219 54.0156 50.5469ZM102.281 53.2188C102.281 53.2292 102.276 53.25 102.266 53.2812C102.151 54.0938 101.734 54.5 101.016 54.5C100.766 54.5 100.547 54.4375 100.359 54.3125C99.9427 54.0417 99.7344 53.599 99.7344 52.9844C99.7344 52.8073 100.224 48.5312 101.203 40.1562C98.724 45.375 96.776 49.4948 95.3594 52.5156C95.0573 53.1615 94.8854 53.5208 94.8438 53.5938C94.5312 54.1875 94.1146 54.4896 93.5938 54.5C93.4896 54.5 93.3906 54.4896 93.2969 54.4688C92.8594 54.3854 92.526 54.026 92.2969 53.3906L89.5938 40.125C88.9896 44.8958 88.375 49.2604 87.75 53.2188C87.75 53.2292 87.7448 53.25 87.7344 53.2812C87.6198 54.0938 87.2031 54.5 86.4844 54.5C86.2344 54.5 86.0156 54.4375 85.8281 54.3125C85.4115 54.0417 85.2031 53.599 85.2031 52.9844C85.2031 52.8802 85.9427 47.2604 87.4219 36.125C87.8073 33.25 88.0156 31.6979 88.0469 31.4688C88.0781 31.2812 88.1406 31.1094 88.2344 30.9531C88.4948 30.5365 88.875 30.3281 89.375 30.3281C89.4896 30.3281 89.6094 30.3438 89.7344 30.375C90.1823 30.5 90.4375 30.7344 90.5 31.0781C90.7083 32.2448 91.3802 35.6406 92.5156 41.2656C93.3281 45.3385 93.849 47.9688 94.0781 49.1562L102.531 31.2344C102.573 31.1302 102.63 31.0208 102.703 30.9062C103.005 30.5208 103.38 30.3281 103.828 30.3281C104.026 30.3281 104.214 30.3802 104.391 30.4844C104.807 30.7135 105.036 31.0677 105.078 31.5469C105.036 31.849 104.995 32.1979 104.953 32.5938C103.422 44.8125 102.531 51.6875 102.281 53.2188ZM108 49.7188C108 49.3646 108.021 48.9896 108.062 48.5938C108.281 46.8125 108.844 45.2292 109.75 43.8438C110.854 42.1458 112.182 41.2969 113.734 41.2969C114.151 41.2969 114.552 41.349 114.938 41.4531C116.312 41.849 117 42.8177 117 44.3594C117 44.474 116.995 44.5938 116.984 44.7188C116.88 46.1146 116.255 47.2865 115.109 48.2344C113.984 49.1719 112.677 49.6406 111.188 49.6406C110.906 49.6406 110.63 49.6146 110.359 49.5625C110.339 49.7188 110.328 49.9375 110.328 50.2188C110.328 50.8229 110.432 51.2917 110.641 51.625C110.922 52.0521 111.5 52.3021 112.375 52.375C112.76 52.375 113.141 52.3333 113.516 52.25C114.172 52.0938 114.948 51.724 115.844 51.1406C116.427 50.7552 116.839 50.5625 117.078 50.5625C117.214 50.5625 117.354 50.6042 117.5 50.6875C117.833 50.8854 118 51.1719 118 51.5469C118 51.6719 117.974 51.8073 117.922 51.9531C117.641 52.6302 116.797 53.2708 115.391 53.875C114.089 54.4375 112.943 54.7188 111.953 54.7188C111.578 54.7188 111.229 54.6875 110.906 54.625C108.969 54.2292 108 52.5938 108 49.7188ZM113.016 43.75C112.068 44.3854 111.323 45.5938 110.781 47.375C111.042 47.4375 111.292 47.4688 111.531 47.4688C112.396 47.4688 113.151 47.2031 113.797 46.6719C114.516 46.0885 114.875 45.3958 114.875 44.5938C114.875 43.7917 114.62 43.3854 114.109 43.375C113.745 43.3854 113.38 43.5104 113.016 43.75ZM117.688 52.875C117.688 52.875 118.13 49.5312 119.016 42.8438C119.036 42.6667 119.062 42.5 119.094 42.3438C119.281 41.4479 119.688 41 120.312 41C120.427 41 120.542 41.0104 120.656 41.0312C121.135 41.1458 121.375 41.599 121.375 42.3906C121.375 42.5052 121.365 42.7031 121.344 42.9844C121.333 43.1719 121.328 43.3177 121.328 43.4219C121.349 43.3802 121.375 43.3385 121.406 43.2969C122.177 41.9323 123.276 41.25 124.703 41.25C125.214 41.25 125.682 41.401 126.109 41.7031C126.745 42.1719 127.062 42.7917 127.062 43.5625C127.062 43.6875 127.057 43.9844 127.047 44.4531C127.036 45.5156 127.031 46.3594 127.031 46.9844C127.031 49.1094 127.094 50.3594 127.219 50.7344C127.25 50.8177 127.281 50.9062 127.312 51C127.604 51.7917 128.016 52.1875 128.547 52.1875C128.641 52.1875 128.745 52.1771 128.859 52.1562C129.172 52.0938 129.62 51.849 130.203 51.4219C130.776 51.0156 131.234 50.8125 131.578 50.8125C131.714 50.8125 131.844 50.849 131.969 50.9219C132.292 51.1094 132.453 51.4167 132.453 51.8438C132.391 52.3542 131.953 52.9167 131.141 53.5312C130.182 54.1771 129.219 54.5 128.25 54.5C127.469 54.5 126.807 54.2865 126.266 53.8594C125.151 52.9635 124.594 51 124.594 47.9688C124.594 47.75 124.599 47.3958 124.609 46.9062C124.63 46.3958 124.641 45.9688 124.641 45.625C124.641 44.5104 124.516 43.9375 124.266 43.9062C124.224 43.9062 124.172 43.9167 124.109 43.9375C123.516 44.1562 122.755 45.3385 121.828 47.4844C121.016 49.3698 120.495 50.9375 120.266 52.1875L120.234 52.6406C120.203 53.0156 120.099 53.3594 119.922 53.6719C119.62 54.1719 119.245 54.4219 118.797 54.4219C118.672 54.4219 118.547 54.3958 118.422 54.3438C117.932 54.1146 117.688 53.625 117.688 52.875ZM130.469 49.5312C130.469 49.1771 130.49 48.8021 130.531 48.4062C130.75 46.625 131.312 45.0417 132.219 43.6562C133.323 41.9583 134.651 41.1094 136.203 41.1094C136.745 41.1094 137.271 41.2083 137.781 41.4062L139.047 32.4062C139.214 31.1875 139.651 30.5729 140.359 30.5625C140.474 30.5625 140.589 30.5729 140.703 30.5938C141.182 30.7083 141.422 31.1615 141.422 31.9531C141.422 32.276 141.198 34.1094 140.75 37.4531C139.74 45.0677 139.234 49.2552 139.234 50.0156C139.234 50.4948 139.333 50.9427 139.531 51.3594C139.823 51.9844 140.214 52.2969 140.703 52.2969C140.797 52.2969 140.896 52.2865 141 52.2656C141.312 52.2031 141.766 51.9635 142.359 51.5469C142.943 51.1302 143.406 50.9219 143.75 50.9219C143.896 50.9219 144.031 50.974 144.156 51.0781C144.406 51.2865 144.531 51.5521 144.531 51.875C144.49 52.4167 144.083 52.9844 143.312 53.5781C142.375 54.2448 141.38 54.5781 140.328 54.5781C139.026 54.5677 138.042 53.9115 137.375 52.6094C137.219 52.7969 137.042 52.9792 136.844 53.1562C135.844 54.0729 134.828 54.5312 133.797 54.5312C133.141 54.5312 132.573 54.3646 132.094 54.0312C131.01 53.2812 130.469 51.7812 130.469 49.5312ZM136.031 50.5938C136.167 50.3958 136.333 49.8802 136.531 49.0469C136.948 47.2448 137.266 45.3542 137.484 43.375C137.245 43.2604 136.995 43.1875 136.734 43.1562C136.547 43.1562 136.354 43.1823 136.156 43.2344C135.188 43.5052 134.37 44.401 133.703 45.9219C133.109 47.2865 132.812 48.6562 132.812 50.0312C132.812 50.1458 132.818 50.2604 132.828 50.375C132.88 51.5312 133.203 52.1094 133.797 52.1094C134.099 52.099 134.479 51.9323 134.938 51.6094C135.427 51.2552 135.792 50.9167 136.031 50.5938ZM155.828 41.9375C156.047 41.3958 156.432 41.1198 156.984 41.1094C157.193 41.1198 157.401 41.1406 157.609 41.1719C159.359 41.4531 160.781 42.3438 161.875 43.8438C162.896 45.25 163.406 46.8542 163.406 48.6562C163.406 50.3542 162.927 51.8438 161.969 53.125C161.552 53.6667 161.099 53.9427 160.609 53.9531C160.401 53.9531 160.203 53.8646 160.016 53.6875C159.745 53.4271 159.609 53.1406 159.609 52.8281C159.609 52.6927 159.635 52.5521 159.688 52.4062C159.688 52.4062 159.75 52.2917 159.875 52.0625C160.625 50.8646 161.005 49.651 161.016 48.4219C161.016 48.276 161.01 48.1302 161 47.9844C160.896 46.6406 160.37 45.5 159.422 44.5625C158.818 43.9375 158.266 43.6198 157.766 43.6094C157.693 44.0781 157.531 44.6354 157.281 45.2812C156.531 47.2708 155.453 49.0625 154.047 50.6562C151.766 53.25 149.208 54.5469 146.375 54.5469C145.979 54.5469 145.604 54.5052 145.25 54.4219C143.427 53.9531 142.516 52.3333 142.516 49.5625C142.516 49.2083 142.536 48.8333 142.578 48.4375C142.797 46.6562 143.359 45.0729 144.266 43.6875C145.38 41.9896 146.714 41.1406 148.266 41.1406C148.943 41.1406 149.552 41.2969 150.094 41.6094C151.042 42.151 151.516 43.0208 151.516 44.2188C151.516 44.3438 151.51 44.474 151.5 44.6094C151.385 46.3281 150.547 47.6458 148.984 48.5625C147.932 49.1771 146.839 49.4844 145.703 49.4844C145.422 49.4844 145.146 49.4583 144.875 49.4062C144.865 49.5625 144.859 49.7812 144.859 50.0625C144.859 50.4167 144.896 50.7292 144.969 51C145.208 51.8021 145.849 52.2031 146.891 52.2031C147.484 52.2031 148.073 52.1042 148.656 51.9062C150.594 51.2292 152.333 49.5052 153.875 46.7344C154.802 45.0677 155.453 43.4688 155.828 41.9375ZM147.719 43.4844C147.594 43.5573 147.464 43.6458 147.328 43.75C146.453 44.4375 145.776 45.599 145.297 47.2344C145.516 47.276 145.755 47.2969 146.016 47.2969C146.901 47.2969 147.677 47.0365 148.344 46.5156C149.062 45.9323 149.422 45.2396 149.422 44.4375C149.422 44.3646 149.417 44.2917 149.406 44.2188C149.344 43.5417 149.089 43.1979 148.641 43.1875C148.38 43.1875 148.073 43.2865 147.719 43.4844Z" fill="#7EAA92"/>
</svg>
